<?xml version="1.0" encoding="UTF-8"?>
<svg version="1.1" xmlns="http://www.w3.org/2000/svg" width="512" height="512">
<path d="M0 0 C1.01378293 -0.00307895 1.01378293 -0.00307895 2.04804632 -0.0062201 C4.30513318 -0.01185939 6.56215843 -0.01043667 8.81925106 -0.00901413 C10.456986 -0.01159953 12.09472032 -0.01461318 13.73245376 -0.01801753 C18.22743927 -0.02607026 22.7224088 -0.02787614 27.21740067 -0.028615 C32.06762915 -0.03046857 36.91784938 -0.03801745 41.76807308 -0.04475021 C52.37156507 -0.05832195 62.97505326 -0.06435649 73.57855248 -0.06876087 C80.20220186 -0.07152534 86.82584978 -0.07576308 93.44949818 -0.08026505 C111.79628978 -0.09245636 130.14308022 -0.10275584 148.48987579 -0.10614014 C149.66371736 -0.1063597 150.83755892 -0.10657927 152.04697144 -0.10680549 C153.22358761 -0.10702377 154.40020377 -0.10724204 155.61247498 -0.10746694 C157.99666218 -0.1079104 160.38084938 -0.10835696 162.76503658 -0.10880661 C163.94767041 -0.10902804 165.13030423 -0.10924947 166.34877544 -0.10947761 C185.5056745 -0.11342445 204.6625355 -0.13087563 223.81941987 -0.15416613 C243.49774654 -0.17789704 263.17605412 -0.19034279 282.85439533 -0.19150805 C293.89889025 -0.19242385 304.94333557 -0.19815218 315.98781681 -0.21632767 C325.39363212 -0.23175214 334.79938251 -0.23683527 344.20520807 -0.22858956 C349.00084607 -0.22469134 353.79635341 -0.22557212 358.59197521 -0.23964691 C362.98972626 -0.25243549 367.38724912 -0.25114507 371.78500008 -0.2390562 C373.36847714 -0.23710775 374.95197064 -0.24013784 376.53542466 -0.24890056 C397.172225 -0.35579184 414.86862682 4.40717221 430.04018307 19.15095901 C441.86917727 31.67976013 448.07561165 46.97940147 448.09348583 64.1693697 C448.09656478 65.18315263 448.09656478 65.18315263 448.09970593 66.21741602 C448.10534522 68.47450288 448.10392251 70.73152813 448.10249996 72.98862076 C448.10508536 74.6263557 448.10809901 76.26409002 448.11150336 77.90182346 C448.11955609 82.39680897 448.12136197 86.8917785 448.12210083 91.38677037 C448.1239544 96.23699884 448.13150329 101.08721908 448.13823605 105.93744278 C448.15180778 116.54093476 448.15784232 127.14442296 448.1622467 137.74792218 C448.16501118 144.37157156 448.16924891 150.99521948 448.17375088 157.61886787 C448.1859422 175.96565948 448.19624167 194.31244992 448.19962597 212.65924549 C448.19984554 213.83308705 448.2000651 215.00692862 448.20029132 216.21634113 C448.2005096 217.3929573 448.20072788 218.56957347 448.20095277 219.78184468 C448.20139623 222.16603188 448.20184279 224.55021908 448.20229244 226.93440628 C448.20251387 228.1170401 448.2027353 229.29967393 448.20296344 230.51814514 C448.20691028 249.6750442 448.22436146 268.8319052 448.24765196 287.98878957 C448.27138288 307.66711624 448.28382862 327.34542382 448.28499389 347.02376503 C448.28590968 358.06825995 448.29163801 369.11270527 448.3098135 380.15718651 C448.32523798 389.56300182 448.33032111 398.96875221 448.3220754 408.37457777 C448.31817718 413.17021577 448.31905795 417.96572311 448.33313274 422.76134491 C448.34592133 427.15909595 448.34463091 431.55661882 448.33254203 435.95436978 C448.33059358 437.53784684 448.33362367 439.12134034 448.34238639 440.70479435 C448.44927767 461.34159469 443.68631362 479.03799652 428.94252682 494.20955276 C415.92410075 506.5008235 399.80282336 512.24413484 381.98937893 512.26285553 C381.32057673 512.26490816 380.65177454 512.2669608 379.96270561 512.26907563 C377.72960147 512.27471405 375.49655963 512.27329231 373.26344967 512.27186966 C371.64292661 512.27445512 370.02240419 512.27746878 368.40188265 512.28087306 C363.95443401 512.28892524 359.50700153 512.29073164 355.05954647 512.29147053 C350.26042405 512.29332421 345.46130994 512.30087318 340.66219234 512.30760574 C330.17019992 512.32117739 319.67821133 512.32721209 309.18621159 512.3316164 C302.63156841 512.33438106 296.07692669 512.33861884 289.52228451 512.34312057 C271.36507669 512.3553122 253.20787005 512.36561141 235.05065823 512.36899567 C233.88893867 512.36921523 232.72721912 512.3694348 231.53029594 512.36966102 C230.36583502 512.3698793 229.2013741 512.37009757 228.00162649 512.37032247 C225.64208285 512.37076593 223.28253921 512.37121249 220.92299557 512.37166214 C219.75258651 512.37188357 218.58217746 512.372105 217.37630147 512.37233314 C198.4205401 512.37627936 179.46481721 512.39372849 160.50907069 512.41702166 C141.03527142 512.44075772 121.56149145 512.45319856 102.08767748 512.45436358 C91.15884556 512.45527913 80.23006377 512.46100096 69.30124569 512.4791832 C59.99317491 512.49461468 50.68516975 512.49968672 41.37708861 512.49144509 C36.63195784 512.48754925 31.88695911 512.48841587 27.14184475 512.50250244 C22.78906761 512.51530556 18.43652086 512.51398806 14.08374375 512.50191173 C12.51774539 512.49996576 10.95173035 512.50298165 9.38575536 512.51175609 C-8.97455711 512.60803292 -25.27875636 509.66707827 -40.03794193 498.13142776 C-41.29284428 497.17816605 -41.29284428 497.17816605 -42.57309818 496.20564651 C-55.1657207 485.87074302 -61.74920919 471.05651084 -64.03794193 455.13142776 C-64.12756533 452.82778952 -64.16697332 450.52191341 -64.1693697 448.21653366 C-64.17142233 447.54183222 -64.17347497 446.86713078 -64.1755898 446.17198384 C-64.18124093 443.91280048 -64.17980489 441.65367845 -64.17838383 439.39448929 C-64.18096856 437.7576174 -64.18398202 436.12074614 -64.18738723 434.48387575 C-64.19544801 429.9866309 -64.19724629 425.48940201 -64.1979847 420.99215078 C-64.19983689 416.14122306 -64.20738513 411.29030359 -64.21411991 406.43938065 C-64.22769786 395.83169735 -64.23372729 385.22401783 -64.23813057 374.61632729 C-64.24089426 367.99050568 -64.24513188 361.36468552 -64.24963474 354.7388649 C-64.26182738 336.38782467 -64.27212627 318.03678561 -64.27550983 299.68574142 C-64.27583918 297.9241764 -64.27583918 297.9241764 -64.27617519 296.1270242 C-64.27639346 294.94985993 -64.27661174 293.77269567 -64.27683663 292.55985975 C-64.2772801 290.17453607 -64.27772666 287.78921239 -64.27817631 285.4038887 C-64.27839774 284.22068938 -64.27861917 283.03749005 -64.27884731 281.81843621 C-64.28279362 262.65500704 -64.30024257 243.49161594 -64.32353583 224.32820147 C-64.34726692 204.64538641 -64.35971251 184.96259043 -64.36087775 165.27976084 C-64.3617936 154.23189757 -64.36752296 143.18408388 -64.38569736 132.13623428 C-64.40112215 122.72673496 -64.40620483 113.31730053 -64.39795926 103.90779096 C-64.39406101 99.11013466 -64.39494193 94.31260897 -64.40901661 89.51496887 C-64.42180517 85.11532754 -64.42051478 80.71591428 -64.4084259 76.31627303 C-64.40647743 74.73209314 -64.40950761 73.14789681 -64.41827026 71.56373996 C-64.52512511 50.92458905 -59.76417525 33.22689416 -45.01841068 18.05330276 C-32.48960957 6.22430856 -17.18996823 0.01787418 0 0 Z " fill="#355570" transform="translate(64.03794193267822,-0.13142776489257813)"/>
<path d="M0 0 C1.01378293 -0.00307895 1.01378293 -0.00307895 2.04804632 -0.0062201 C4.30513318 -0.01185939 6.56215843 -0.01043667 8.81925106 -0.00901413 C10.456986 -0.01159953 12.09472032 -0.01461318 13.73245376 -0.01801753 C18.22743927 -0.02607026 22.7224088 -0.02787614 27.21740067 -0.028615 C32.06762915 -0.03046857 36.91784938 -0.03801745 41.76807308 -0.04475021 C52.37156507 -0.05832195 62.97505326 -0.06435649 73.57855248 -0.06876087 C80.20220186 -0.07152534 86.82584978 -0.07576308 93.44949818 -0.08026505 C111.79628978 -0.09245636 130.14308022 -0.10275584 148.48987579 -0.10614014 C149.66371736 -0.1063597 150.83755892 -0.10657927 152.04697144 -0.10680549 C153.22358761 -0.10702377 154.40020377 -0.10724204 155.61247498 -0.10746694 C157.99666218 -0.1079104 160.38084938 -0.10835696 162.76503658 -0.10880661 C163.94767041 -0.10902804 165.13030423 -0.10924947 166.34877544 -0.10947761 C185.5056745 -0.11342445 204.6625355 -0.13087563 223.81941987 -0.15416613 C243.49774654 -0.17789704 263.17605412 -0.19034279 282.85439533 -0.19150805 C293.89889025 -0.19242385 304.94333557 -0.19815218 315.98781681 -0.21632767 C325.39363212 -0.23175214 334.79938251 -0.23683527 344.20520807 -0.22858956 C349.00084607 -0.22469134 353.79635341 -0.22557212 358.59197521 -0.23964691 C362.98972626 -0.25243549 367.38724912 -0.25114507 371.78500008 -0.2390562 C373.36847714 -0.23710775 374.95197064 -0.24013784 376.53542466 -0.24890056 C397.172225 -0.35579184 414.86862682 4.40717221 430.04018307 19.15095901 C441.86917727 31.67976013 448.07561165 46.97940147 448.09348583 64.1693697 C448.09656478 65.18315263 448.09656478 65.18315263 448.09970593 66.21741602 C448.10534522 68.47450288 448.10392251 70.73152813 448.10249996 72.98862076 C448.10508536 74.6263557 448.10809901 76.26409002 448.11150336 77.90182346 C448.11955609 82.39680897 448.12136197 86.8917785 448.12210083 91.38677037 C448.1239544 96.23699884 448.13150329 101.08721908 448.13823605 105.93744278 C448.15180778 116.54093476 448.15784232 127.14442296 448.1622467 137.74792218 C448.16501118 144.37157156 448.16924891 150.99521948 448.17375088 157.61886787 C448.1859422 175.96565948 448.19624167 194.31244992 448.19962597 212.65924549 C448.19984554 213.83308705 448.2000651 215.00692862 448.20029132 216.21634113 C448.2005096 217.3929573 448.20072788 218.56957347 448.20095277 219.78184468 C448.20139623 222.16603188 448.20184279 224.55021908 448.20229244 226.93440628 C448.20251387 228.1170401 448.2027353 229.29967393 448.20296344 230.51814514 C448.20691028 249.6750442 448.22436146 268.8319052 448.24765196 287.98878957 C448.27138288 307.66711624 448.28382862 327.34542382 448.28499389 347.02376503 C448.28590968 358.06825995 448.29163801 369.11270527 448.3098135 380.15718651 C448.32523798 389.56300182 448.33032111 398.96875221 448.3220754 408.37457777 C448.31817718 413.17021577 448.31905795 417.96572311 448.33313274 422.76134491 C448.34592133 427.15909595 448.34463091 431.55661882 448.33254203 435.95436978 C448.33059358 437.53784684 448.33362367 439.12134034 448.34238639 440.70479435 C448.44927767 461.34159469 443.68631362 479.03799652 428.94252682 494.20955276 C415.92410075 506.5008235 399.80282336 512.24413484 381.98937893 512.26285553 C381.32057673 512.26490816 380.65177454 512.2669608 379.96270561 512.26907563 C377.72960147 512.27471405 375.49655963 512.27329231 373.26344967 512.27186966 C371.64292661 512.27445512 370.02240419 512.27746878 368.40188265 512.28087306 C363.95443401 512.28892524 359.50700153 512.29073164 355.05954647 512.29147053 C350.26042405 512.29332421 345.46130994 512.30087318 340.66219234 512.30760574 C330.17019992 512.32117739 319.67821133 512.32721209 309.18621159 512.3316164 C302.63156841 512.33438106 296.07692669 512.33861884 289.52228451 512.34312057 C271.36507669 512.3553122 253.20787005 512.36561141 235.05065823 512.36899567 C233.88893867 512.36921523 232.72721912 512.3694348 231.53029594 512.36966102 C230.36583502 512.3698793 229.2013741 512.37009757 228.00162649 512.37032247 C225.64208285 512.37076593 223.28253921 512.37121249 220.92299557 512.37166214 C219.75258651 512.37188357 218.58217746 512.372105 217.37630147 512.37233314 C198.4205401 512.37627936 179.46481721 512.39372849 160.50907069 512.41702166 C141.03527142 512.44075772 121.56149145 512.45319856 102.08767748 512.45436358 C91.15884556 512.45527913 80.23006377 512.46100096 69.30124569 512.4791832 C59.99317491 512.49461468 50.68516975 512.49968672 41.37708861 512.49144509 C36.63195784 512.48754925 31.88695911 512.48841587 27.14184475 512.50250244 C22.78906761 512.51530556 18.43652086 512.51398806 14.08374375 512.50191173 C12.51774539 512.49996576 10.95173035 512.50298165 9.38575536 512.51175609 C-8.97455711 512.60803292 -25.27875636 509.66707827 -40.03794193 498.13142776 C-41.29284428 497.17816605 -41.29284428 497.17816605 -42.57309818 496.20564651 C-55.1657207 485.87074302 -61.74920919 471.05651084 -64.03794193 455.13142776 C-64.12756533 452.82778952 -64.16697332 450.52191341 -64.1693697 448.21653366 C-64.17142233 447.54183222 -64.17347497 446.86713078 -64.1755898 446.17198384 C-64.18124093 443.91280048 -64.17980489 441.65367845 -64.17838383 439.39448929 C-64.18096856 437.7576174 -64.18398202 436.12074614 -64.18738723 434.48387575 C-64.19544801 429.9866309 -64.19724629 425.48940201 -64.1979847 420.99215078 C-64.19983689 416.14122306 -64.20738513 411.29030359 -64.21411991 406.43938065 C-64.22769786 395.83169735 -64.23372729 385.22401783 -64.23813057 374.61632729 C-64.24089426 367.99050568 -64.24513188 361.36468552 -64.24963474 354.7388649 C-64.26182738 336.38782467 -64.27212627 318.03678561 -64.27550983 299.68574142 C-64.27583918 297.9241764 -64.27583918 297.9241764 -64.27617519 296.1270242 C-64.27639346 294.94985993 -64.27661174 293.77269567 -64.27683663 292.55985975 C-64.2772801 290.17453607 -64.27772666 287.78921239 -64.27817631 285.4038887 C-64.27839774 284.22068938 -64.27861917 283.03749005 -64.27884731 281.81843621 C-64.28279362 262.65500704 -64.30024257 243.49161594 -64.32353583 224.32820147 C-64.34726692 204.64538641 -64.35971251 184.96259043 -64.36087775 165.27976084 C-64.3617936 154.23189757 -64.36752296 143.18408388 -64.38569736 132.13623428 C-64.40112215 122.72673496 -64.40620483 113.31730053 -64.39795926 103.90779096 C-64.39406101 99.11013466 -64.39494193 94.31260897 -64.40901661 89.51496887 C-64.42180517 85.11532754 -64.42051478 80.71591428 -64.4084259 76.31627303 C-64.40647743 74.73209314 -64.40950761 73.14789681 -64.41827026 71.56373996 C-64.52512511 50.92458905 -59.76417525 33.22689416 -45.01841068 18.05330276 C-32.48960957 6.22430856 -17.18996823 0.01787418 0 0 Z M-33.03794193 29.13142776 C-34.09755131 30.13302933 -34.09755131 30.13302933 -35.17856693 31.15486526 C-40.65955151 36.77794945 -43.47519823 42.77098944 -46.03794193 50.13142776 C-46.38342189 51.03812806 -46.72890186 51.94482836 -47.08485091 52.87900442 C-48.1271458 56.43583597 -48.2908734 59.36184456 -48.29521084 63.06473255 C-48.29871691 63.74142196 -48.30222299 64.41811137 -48.30583531 65.11530653 C-48.31513427 67.38130652 -48.31022993 69.64704866 -48.30536747 71.91305923 C-48.30910451 73.55477003 -48.31370625 75.19647905 -48.31909811 76.83818525 C-48.3313373 81.34877953 -48.33106655 85.85929969 -48.32870936 90.36990678 C-48.32830142 95.23513774 -48.33933837 100.10034486 -48.3488245 104.96556473 C-48.36544158 114.49824187 -48.37093441 124.03089428 -48.37204926 133.56358469 C-48.3729996 141.3140971 -48.37710919 149.06460134 -48.38345051 156.81511116 C-48.40106648 178.79348663 -48.41028907 200.77184256 -48.40878956 222.75022513 C-48.40870965 223.93522855 -48.40862974 225.12023196 -48.4085474 226.34114456 C-48.40846564 227.52759681 -48.40838388 228.71404906 -48.40829964 229.93645441 C-48.40748711 249.15554073 -48.42661557 268.37454862 -48.45482413 287.59361226 C-48.48356572 307.33179718 -48.49736366 327.06994386 -48.49563658 346.80815023 C-48.49497302 357.8878523 -48.50045028 368.96747218 -48.52199268 380.04715538 C-48.54022144 389.48305197 -48.54453803 398.91882915 -48.53097384 408.35473574 C-48.52445218 413.1664797 -48.52429791 417.97799467 -48.54168034 422.78971672 C-48.55745206 427.20108884 -48.55450573 431.61205121 -48.53711207 436.02341359 C-48.53405113 437.61295889 -48.53764018 439.20253509 -48.54883222 440.79204393 C-48.65264487 456.5915251 -45.370833 470.56116693 -34.28794193 482.38142776 C-21.97044072 493.95241375 -7.96954923 496.74042237 8.42052364 496.63936234 C10.06257876 496.64397889 11.70462974 496.65033685 13.34667218 496.65827131 C17.83047176 496.67488455 22.31392838 496.6667549 26.79772878 496.65432644 C31.64447968 496.64524517 36.4911732 496.65926099 41.33791256 496.67024612 C50.82201273 496.68800396 60.30598606 496.68420332 69.79009114 496.67259556 C77.50136612 496.66354968 85.21260563 496.66234224 92.92388439 496.66669083 C94.57227305 496.66761022 94.57227305 496.66761022 96.25396249 496.6685482 C98.48666986 496.66982715 100.71937721 496.671124 102.95208456 496.67243856 C123.8738851 496.68383663 144.79561547 496.67074334 165.7174045 496.6492371 C183.65201819 496.63137183 201.58652829 496.63446704 219.5211401 496.65291214 C240.36669307 496.67434111 261.21218456 496.68273282 282.05774701 496.67046309 C284.28269807 496.66918894 286.50764913 496.66793146 288.73260021 496.66669083 C289.82720628 496.66607372 290.92181234 496.66545662 292.04958829 496.66482082 C299.74662163 496.66137363 307.44361584 496.66718275 315.14064312 496.67660904 C324.52806974 496.68785315 333.91536266 496.68473854 343.30277406 496.66348606 C348.08834634 496.65300732 352.87369607 496.64879934 357.65926647 496.66208267 C362.04764489 496.67407882 366.43559632 496.66732612 370.82393648 496.64617246 C372.40389292 496.64173673 373.9838861 496.64390374 375.56381856 496.65367562 C391.65644476 496.74550414 406.10642148 493.71047635 418.21205807 482.38142776 C429.79560619 470.05055396 432.57228042 456.04576113 432.45653439 439.63931656 C432.45971626 437.99369943 432.46464909 436.34808493 432.47116721 434.70247763 C432.48392104 430.20900974 432.47191546 425.7159056 432.45563865 421.22246182 C432.4424271 416.3655933 432.452394 411.50876356 432.45940304 406.6518898 C432.46946423 397.14940289 432.458233 387.64705567 432.43970244 378.14458612 C432.41889346 367.07433545 432.41907589 356.00411466 432.4200476 344.93384811 C432.42104792 325.18140057 432.40274944 305.42901791 432.37367916 285.67659378 C432.34549471 266.51609999 432.3313382 247.35566327 432.33266354 228.19514847 C432.33274345 227.01456554 432.33282336 225.83398261 432.33290569 224.61762444 C432.33302676 222.84978898 432.33302676 222.84978898 432.33315027 221.04623967 C432.33453039 199.21994221 432.32274882 177.39366895 432.30484384 155.56737933 C432.29881513 147.85298291 432.2966852 140.13859094 432.29577923 132.42419243 C432.29441409 123.02384387 432.28547234 113.62353613 432.26711361 104.22320489 C432.25788895 99.42818636 432.25178248 94.63321998 432.25430202 89.83819199 C432.25649744 85.44709988 432.24942287 81.05612298 432.23500498 76.66505488 C432.23138875 75.07845782 432.23110755 73.49184883 432.23453955 71.90525136 C432.2653979 55.86042292 429.5751189 41.69627773 418.27455807 29.63142776 C405.50827641 17.85163151 390.32385915 15.67583326 373.63730526 15.73028946 C371.99753942 15.72467652 370.3577776 15.71777099 368.71802205 15.70969349 C364.23589175 15.69142638 359.75393005 15.69172991 355.27177107 15.69527662 C350.42836964 15.69589085 345.58502131 15.67931135 340.74164486 15.66510391 C331.26144744 15.64023041 321.78130599 15.63194148 312.30107865 15.63026678 C304.59170637 15.62883912 296.88235249 15.62266403 289.17298603 15.6131649 C267.29468063 15.58675783 245.41641929 15.57290482 223.53809784 15.57515632 C222.35969661 15.57527619 221.18129538 15.57539606 219.96718502 15.57551956 C218.78733782 15.5756422 217.60749063 15.57576485 216.39189049 15.5758912 C197.27533739 15.57711029 178.15896164 15.54840596 159.04245982 15.50610446 C139.39336607 15.462969 119.74435874 15.44229633 100.09521645 15.44488579 C89.07190086 15.44588017 78.04877122 15.43770624 67.02549839 15.40535164 C57.63953576 15.37797831 48.25384338 15.37155836 38.86785803 15.39187991 C34.08395571 15.40164651 29.30057129 15.40195274 24.51671886 15.37582016 C20.12741881 15.35209061 15.73904344 15.35665244 11.34976473 15.38267256 C9.77175315 15.38724842 8.193671 15.38193983 6.61574272 15.36509233 C-8.13395015 15.21818574 -22.12589435 18.52491752 -33.03794193 29.13142776 Z " fill="#2B445A" transform="translate(64.03794193267822,-0.13142776489257813)"/>
<path d="M0 0 C4.47461743 1.5368429 6.60982099 5.13042664 9.25 8.8125 C10.31920363 10.27164652 11.38957687 11.7299365 12.4609375 13.1875 C13.31703613 14.35732422 13.31703613 14.35732422 14.19042969 15.55078125 C17.36404184 19.8462045 20.6257677 24.07418387 23.875 28.3125 C29.56872191 35.76171867 35.1702245 43.27136701 40.71044922 50.83520508 C45.07237538 56.77627923 49.52040458 62.64727035 54 68.5 C60.95359384 77.58606284 67.75926343 86.77326422 74.52783203 95.99755859 C79.20051883 102.35334253 83.95831333 108.6430046 88.75390625 114.90625 C101.43214928 131.47212815 101.43214928 131.47212815 107 139.25 C107.41499756 139.8279834 107.82999512 140.4059668 108.25756836 141.00146484 C111 144.87094781 111 144.87094781 111 146 C18.6 146 -73.8 146 -169 146 C-164.50568664 138.13495162 -164.50568664 138.13495162 -162.0390625 135.046875 C-161.21946045 134.0098645 -161.21946045 134.0098645 -160.38330078 132.9519043 C-159.51294189 131.86196167 -159.51294189 131.86196167 -158.625 130.75 C-153.67776872 124.47490955 -148.83913201 118.13955463 -144.125 111.6875 C-139.15970818 104.89819486 -134.11336721 98.17849581 -129 91.5 C-123.86983666 84.79805767 -118.80300533 78.05656853 -113.8125 71.25 C-112.11388403 68.94328242 -110.41428598 66.63729193 -108.71435547 64.33154297 C-107.53794658 62.73161348 -106.36528674 61.12892261 -105.19580078 59.52392578 C-103.43424745 57.11096224 -101.65650811 54.71075202 -99.875 52.3125 C-99.34237549 51.57483398 -98.80975098 50.83716797 -98.26098633 50.07714844 C-97.75978271 49.40844727 -97.2585791 48.73974609 -96.7421875 48.05078125 C-96.3076123 47.45950439 -95.87303711 46.86822754 -95.42529297 46.2590332 C-94 45 -94 45 -90 45 C-88.47949219 46.38598633 -88.47949219 46.38598633 -87.046875 48.33203125 C-86.51368652 49.04351318 -85.98049805 49.75499512 -85.43115234 50.48803711 C-84.87637207 51.25510986 -84.3215918 52.02218262 -83.75 52.8125 C-83.17588379 53.58408447 -82.60176758 54.35566895 -82.01025391 55.15063477 C-78.13154178 60.37986276 -74.31684513 65.66040708 -70.5859375 70.99609375 C-68.98146562 73.23494805 -68.98146562 73.23494805 -66 75 C-61.68136045 75.31408288 -58.68418375 75.30431419 -55 73 C-53.26157116 71.13360628 -53.26157116 71.13360628 -51.6796875 68.88671875 C-51.06730225 68.057771 -50.45491699 67.22882324 -49.82397461 66.37475586 C-48.85923218 65.04456421 -48.85923218 65.04456421 -47.875 63.6875 C-46.52018073 61.84847968 -45.16471228 60.00993744 -43.80859375 58.171875 C-43.1522998 57.27791016 -42.49600586 56.38394531 -41.81982422 55.46289062 C-39.56988818 52.41790071 -37.26323842 49.42497098 -34.9375 46.4375 C-29.61797379 39.55757944 -24.48438356 32.54350844 -19.3359375 25.53515625 C-13.01236612 16.92916524 -6.59641442 8.39929296 0 0 Z " fill="#365570" transform="translate(285,283)"/>
<path d="M0 0 C0.76828125 -0.02578125 1.5365625 -0.0515625 2.328125 -0.078125 C6.32683693 0.46363597 8.67610672 1.98643647 11.29541016 5.06835938 C13.05986944 7.38763092 14.75556635 9.74522317 16.4375 12.125 C17.68772418 13.85885067 18.93902993 15.59192195 20.19140625 17.32421875 C20.80000488 18.17032715 21.40860352 19.01643555 22.03564453 19.88818359 C24.25915408 22.95144639 26.55421665 25.94718758 28.875 28.9375 C36.91170691 39.31715566 44.7330698 49.85498919 52.5 60.4375 C58.93557685 69.20215989 65.51345112 77.85385636 72.1171875 86.4921875 C76.36588543 92.05019142 80.56427884 97.64441657 84.75 103.25 C86.18707574 105.16698479 87.62459066 107.0836404 89.0625 109 C89.80757813 109.99386719 90.55265625 110.98773438 91.3203125 112.01171875 C93.04207894 114.30764391 94.76656324 116.60150443 96.4921875 118.89453125 C101.93231154 126.12881661 107.33176294 133.39048416 112.6875 140.6875 C116.69009313 146.14051592 120.72781011 151.560894 124.85302734 156.921875 C126.47002237 159.02353708 128.07762982 161.13208924 129.68359375 163.2421875 C131.68839963 165.87591476 133.72510941 168.4796577 135.78515625 171.0703125 C140.20536873 176.74740016 143.89614086 181.54229538 143.6875 189.06640625 C142.18963406 192.55518568 140.07269709 194.558236 136.75 196.25 C132.31174711 197.00353381 127.91284535 196.92422621 123.42015076 196.88491821 C122.04496687 196.89068158 120.66979069 196.89862416 119.29463059 196.90855443 C115.52090563 196.92942181 111.74781311 196.91911361 107.97408593 196.90362334 C103.90243954 196.89231324 99.83090211 196.90977075 95.75927734 196.92352295 C87.78531753 196.94576299 79.81159294 196.94095097 71.83762389 196.92645974 C65.35800323 196.91517129 58.87844854 196.91363489 52.39882088 196.91907883 C51.01591277 196.92022807 51.01591277 196.92022807 49.60506712 196.92140054 C47.73222396 196.92299915 45.85938082 196.92462022 43.9865377 196.9262635 C26.42281663 196.94052304 8.85922601 196.92412465 -8.70447367 196.89726166 C-23.77952888 196.87491898 -38.85439161 196.87880583 -53.92944336 196.90185547 C-71.43152964 196.92860346 -88.9335016 196.93915363 -106.43560547 196.92379415 C-108.30128251 196.92220138 -110.16695957 196.92062953 -112.03263664 196.91907883 C-112.95061187 196.91830745 -113.86858711 196.91753607 -114.81437977 196.91674132 C-121.28778073 196.91242159 -127.76110924 196.91971667 -134.23449898 196.93147659 C-142.12112939 196.94548886 -150.00751093 196.94172843 -157.89411277 196.91507287 C-161.91911786 196.90191795 -165.94370778 196.8968105 -169.96870995 196.91331863 C-173.65198176 196.92819694 -177.33445283 196.92006637 -181.01765179 196.89343087 C-182.9840749 196.88518272 -184.95055341 196.90154273 -186.91691881 196.91871703 C-196.4288628 196.81237078 -196.4288628 196.81237078 -199.52268887 193.84679222 C-201.87111386 190.31623444 -202.27534918 188.34197671 -202.03515625 184.16015625 C-200.2688771 177.6134997 -195.40901441 172.45990028 -191.25 167.25 C-190.11621481 165.79473816 -188.98478134 164.33764165 -187.85546875 162.87890625 C-186.07730214 160.5845455 -184.29672551 158.29236444 -182.5065918 156.00732422 C-177.34397093 149.41629636 -172.3906621 142.68837278 -167.46875 135.91699219 C-165.64832313 133.42703332 -163.79360461 130.96343295 -161.9375 128.5 C-159.29163272 124.98787012 -156.66749213 121.46236521 -154.0703125 117.9140625 C-147.67736193 109.18266885 -141.19046036 100.54946871 -134.51220703 92.03417969 C-128.43829944 84.26352626 -122.61921017 76.31115124 -116.79394531 68.35351562 C-113.32051684 63.62121649 -109.79012261 58.93255262 -106.25 54.25 C-105.60289062 53.3734375 -104.95578125 52.496875 -104.2890625 51.59375 C-103.67804688 50.7790625 -103.06703125 49.964375 -102.4375 49.125 C-101.91542969 48.42117188 -101.39335937 47.71734375 -100.85546875 46.9921875 C-98.19890185 44.10939227 -96.16037579 43.35155111 -92.2734375 42.91796875 C-86.83426694 43.51529368 -83.84389809 47.38011998 -80.25 51.25 C-77.4162847 54.80571556 -74.84558087 58.51885251 -72.25 62.25 C-70.60151947 64.49296053 -68.9275359 66.7162202 -67.25 68.9375 C-66.486875 69.95199219 -65.72375 70.96648437 -64.9375 72.01171875 C-64.380625 72.75035156 -63.82375 73.48898437 -63.25 74.25 C-59.67779246 72.79781998 -58.15748248 71.09811101 -56 67.9375 C-51.99551492 62.24024376 -47.80453643 56.70995295 -43.5625 51.1875 C-38.39860565 44.44491566 -33.32094301 37.65409931 -28.375 30.75 C-6.42138789 0.12757724 -6.42138789 0.12757724 0 0 Z M-0.25 29.25 C-7.65620963 38.51531939 -14.77191107 47.96574036 -21.78515625 57.53125 C-26.88141085 64.48183834 -32.05632424 71.37205085 -37.25 78.25 C-38.24628418 79.57209473 -38.24628418 79.57209473 -39.26269531 80.92089844 C-41.42153062 83.78333962 -43.58516012 86.6420981 -45.75 89.5 C-46.43304199 90.4060498 -47.11608398 91.31209961 -47.81982422 92.24560547 C-48.46709473 93.09783691 -49.11436523 93.95006836 -49.78125 94.828125 C-50.35423828 95.58512695 -50.92722656 96.34212891 -51.51757812 97.12207031 C-54.87761357 101.24919389 -57.14048982 104.01118753 -62.5625 104.625 C-67.80301766 104.092066 -69.68975106 101.15411261 -72.86401367 97.28027344 C-74.66091148 95.01591275 -76.4280362 92.73105292 -78.1875 90.4375 C-78.78240234 89.66857422 -79.37730469 88.89964844 -79.99023438 88.10742188 C-83.78844493 83.18842787 -87.5347046 78.23185401 -91.25 73.25 C-94.71089672 74.68739237 -96.41535462 76.38819083 -98.6484375 79.37109375 C-99.60363281 80.63566406 -99.60363281 80.63566406 -100.578125 81.92578125 C-101.25359375 82.83714844 -101.9290625 83.74851562 -102.625 84.6875 C-103.33398438 85.63109375 -104.04296875 86.5746875 -104.7734375 87.546875 C-109.87989257 94.35852132 -114.92696399 101.21465891 -119.95849609 108.08178711 C-124.32028679 114.02458836 -128.76973405 119.89614353 -133.25 125.75 C-140.09665022 134.69977292 -146.81280303 143.73738397 -153.47070312 152.828125 C-155.38429733 155.43279768 -157.30829577 158.02954764 -159.234375 160.625 C-159.88519043 161.50333496 -160.53600586 162.38166992 -161.20654297 163.28662109 C-162.46426327 164.98353515 -163.72364562 166.67921887 -164.98486328 168.37353516 C-165.54415527 169.12940918 -166.10344727 169.8852832 -166.6796875 170.6640625 C-167.42581299 171.66880615 -167.42581299 171.66880615 -168.18701172 172.69384766 C-169.34400869 174.0735304 -169.34400869 174.0735304 -169.25 175.25 C-76.85 175.25 15.55 175.25 110.75 175.25 C107.42982445 169.38199879 107.42982445 169.38199879 103.61328125 164.05078125 C103.0409375 163.32318604 102.46859375 162.59559082 101.87890625 161.84594727 C100.97978516 160.71564087 100.97978516 160.71564087 100.0625 159.5625 C98.79745145 157.95369532 97.53312761 156.34432052 96.26953125 154.734375 C95.66061035 153.96029297 95.05168945 153.18621094 94.42431641 152.38867188 C89.70795825 146.36427738 85.17836843 140.19900094 80.65234375 134.03125 C73.76238293 124.64565825 66.78924523 115.33392939 59.71264648 106.08813477 C55.33045952 100.35246221 51.01517006 94.57311737 46.75 88.75 C39.78168018 79.23773807 32.62909072 69.87062439 25.46826172 60.50292969 C23.29840561 57.65788391 21.14560014 54.80088681 19 51.9375 C18.33226562 51.04804688 17.66453125 50.15859375 16.9765625 49.2421875 C15.18834873 46.83907917 13.41561906 44.42634194 11.6484375 42.0078125 C11.10670898 41.27216064 10.56498047 40.53650879 10.00683594 39.77856445 C8.93897194 38.3283847 7.87687391 36.87393695 6.82128906 35.41479492 C6.09377441 34.43023315 6.09377441 34.43023315 5.3515625 33.42578125 C4.70695068 32.54273315 4.70695068 32.54273315 4.04931641 31.6418457 C2.69140705 29.96508896 2.69140705 29.96508896 -0.25 29.25 Z " fill="#FBFCFC" transform="translate(285.25,253.75)"/>
<path d="M0 0 C2.875 2.125 2.875 2.125 5 5 C6.68165435 22.51322888 -15.95199741 44.09099886 -26 57 C-26.49419434 57.63599121 -26.98838867 58.27198242 -27.49755859 58.92724609 C-35.65951838 69.41727245 -43.8921448 79.82013489 -52.86328125 89.63671875 C-55.44958525 92.49725608 -57.93188456 95.43891275 -60.39453125 98.40625 C-62.13308768 100.13211623 -63.76424381 101.0300407 -66 102 C-66.25652344 101.46632813 -66.51304687 100.93265625 -66.77734375 100.3828125 C-72.9096335 88.44859204 -81.9445418 81.07412627 -93 74 C-88.5394881 68.66449286 -83.8381972 63.67780019 -78.92578125 58.7578125 C-77.77906197 57.60610062 -77.77906197 57.60610062 -76.60917664 56.43112183 C-74.99768113 54.81458793 -73.3848493 53.1993852 -71.77075195 51.58544922 C-69.33189639 49.14441373 -66.90115102 46.69549683 -64.47070312 44.24609375 C-56.62156305 36.36891099 -48.809934 28.80392301 -40 22 C-38.45476119 20.71260887 -36.9126462 19.42145018 -35.375 18.125 C-30.86745213 14.52909102 -26.13676927 11.33692079 -21.3125 8.1875 C-20.24298096 7.48488037 -20.24298096 7.48488037 -19.15185547 6.76806641 C-6.7832426 -1.17969436 -6.7832426 -1.17969436 0 0 Z " fill="#FCFDFD" transform="translate(336,75)"/>
<path d="M0 0 C8.74309839 5.12421592 13.0740533 11.80028491 16.24609375 21.31640625 C17.0560989 30.78417138 16.34151746 38.69148769 10.65625 46.5 C2.00959958 56.17035534 -10.41482049 59.21710035 -22.75390625 61.31640625 C-23.65882813 61.50203125 -24.56375 61.68765625 -25.49609375 61.87890625 C-30.1479779 62.50361971 -34.75303254 62.500684 -39.44140625 62.50390625 C-40.39080078 62.51615234 -41.34019531 62.52839844 -42.31835938 62.54101562 C-43.22908203 62.54294922 -44.13980469 62.54488281 -45.078125 62.546875 C-46.31695435 62.55303833 -46.31695435 62.55303833 -47.58081055 62.55932617 C-49.75390625 62.31640625 -49.75390625 62.31640625 -52.75390625 60.31640625 C-52.41617188 59.82011719 -52.0784375 59.32382813 -51.73046875 58.8125 C-51.06144531 57.79349609 -51.06144531 57.79349609 -50.37890625 56.75390625 C-49.93804687 56.09261719 -49.4971875 55.43132812 -49.04296875 54.75 C-44.67410092 46.50210709 -44.87639264 36.92788116 -44.25 27.80664062 C-43.37437695 17.99016772 -40.66084652 10.75625748 -33.37890625 3.94140625 C-32.19316599 3.0360254 -30.98458043 2.15969476 -29.75390625 1.31640625 C-29.18285156 0.90390625 -28.61179688 0.49140625 -28.0234375 0.06640625 C-19.75897635 -5.00857203 -8.5158993 -4.0132399 0 0 Z " fill="#FDFDFD" transform="translate(223.75390625,182.68359375)"/>
<path d="M0 0 C11.62469 4.35671394 22.62248852 13.65426554 28 25 C28.453125 27.484375 28.453125 27.484375 28 30 C25.953125 32.31640625 25.953125 32.31640625 23.25 34.5625 C19.40715368 37.794516 19.40715368 37.794516 15.796875 41.27734375 C14 43 14 43 12 43 C11.75765625 42.33613281 11.5153125 41.67226562 11.265625 40.98828125 C9.36952344 35.9927829 7.55690519 32.06503451 4 28 C4 27.34 4 26.68 4 26 C3.443125 25.7525 2.88625 25.505 2.3125 25.25 C0 24 0 24 -2.25 22.125 C-5.61231958 19.52684396 -9.16317349 17.78988433 -13 16 C-11.42369323 12.12678907 -8.92252331 9.75264837 -5.9375 6.875 C-2.53546517 3.75894235 -2.53546517 3.75894235 0 0 Z " fill="#FAFAFB" transform="translate(235,156)"/>
<path d="M0 0 C0.66 0.33 1.32 0.66 2 1 C-0.64 3.64 -3.28 6.28 -6 9 C-6 5.06368636 -4.57142871 3.87394974 -2 1 C-1.34 0.67 -0.68 0.34 0 0 Z " fill="#D9DCDF" transform="translate(188,298)"/>
</svg>
